<?xml version="1.0" encoding="utf-8"?>
<!-- Generator: Adobe Illustrator 16.0.0, SVG Export Plug-In . SVG Version: 6.00 Build 0)  -->
<!DOCTYPE svg PUBLIC "-//W3C//DTD SVG 1.1//EN" "http://www.w3.org/Graphics/SVG/1.1/DTD/svg11.dtd">
<svg version="1.1" id="Layer_1" xmlns="http://www.w3.org/2000/svg" xmlns:xlink="http://www.w3.org/1999/xlink" x="0px" y="0px"
	 width="787.604px" height="378.512px" viewBox="0 0 787.604 378.512" enable-background="new 0 0 787.604 378.512"
	 xml:space="preserve">
<g>
	<path fill="#231F20" d="M355.028,225.957V59.995h36.636v141.138h38.037v24.824H355.028z"/>
	<path fill="#231F20" d="M494.884,228.259c-15.749,0-27.477-4.188-35.184-12.562c-7.707-8.374-11.861-21.737-12.463-40.089
		l31.432-4.805c0.133,10.41,1.384,17.967,3.754,22.672c2.367,4.704,5.921,7.057,10.66,7.057c6.205,0,9.309-4.004,9.309-12.012
		c0-4.47-0.801-8.591-2.402-12.362c-1.602-3.769-3.57-6.989-5.906-9.659c-2.336-2.668-5.605-5.806-9.809-9.409l-14.715-12.712
		c-3.537-3.069-6.474-5.872-8.809-8.408c-2.336-2.535-4.621-5.555-6.857-9.059c-2.236-3.503-3.887-7.39-4.954-11.661
		c-1.068-4.27-1.602-8.975-1.602-14.114c0-13.813,4.137-24.49,12.412-32.031c8.274-7.54,19.619-11.344,34.033-11.411
		c4.938,0,9.425,0.535,13.464,1.602c4.036,1.068,7.439,2.47,10.209,4.204c2.769,1.736,5.205,3.921,7.307,6.556
		c2.104,2.637,3.77,5.272,5.006,7.908c1.234,2.637,2.268,5.605,3.104,8.908c0.833,3.304,1.4,6.324,1.701,9.059
		c0.301,2.737,0.516,5.673,0.65,8.809l-31.73,4.104c-0.068-2.803-0.15-5.121-0.25-6.957c-0.102-1.834-0.285-3.786-0.551-5.855
		c-0.268-2.068-0.635-3.736-1.102-5.005c-0.468-1.267-1.086-2.452-1.852-3.554c-0.768-1.101-1.736-1.884-2.902-2.352
		c-1.169-0.466-2.553-0.667-4.154-0.601c-3.203,0.067-5.656,1.418-7.357,4.054c-1.701,2.637-2.553,5.589-2.553,8.858
		c0,3.137,0.383,5.99,1.15,8.559c0.768,2.569,2.104,5.055,4.004,7.457c1.902,2.402,3.454,4.204,4.655,5.405s3.203,3.07,6.006,5.605
		l14.114,12.412c3.869,3.471,7.207,6.791,10.01,9.96c2.803,3.17,5.471,6.773,8.008,10.811c2.535,4.038,4.453,8.475,5.756,13.312
		c1.301,4.839,1.951,10.027,1.951,15.565c0,12.012-4.004,21.972-12.012,29.879C518.407,224.305,507.897,228.259,494.884,228.259z"/>
	<path fill="#231F20" d="M576.584,225.957V87.121H551.06V59.995h87.484v27.126h-25.225v138.835H576.584z"/>
	<path fill="#231F20" d="M705.83,228.259c-7.542,0-14.131-0.785-19.769-2.353c-5.641-1.567-10.311-3.787-14.014-6.657
		c-3.705-2.868-6.707-6.589-9.01-11.16c-2.303-4.57-3.921-9.609-4.854-15.115c-0.935-5.505-1.401-11.927-1.401-19.269V59.995h36.235
		v119.116c0,2.603,0.065,4.822,0.2,6.656c0.133,1.836,0.451,3.821,0.951,5.956c0.5,2.136,1.184,3.888,2.052,5.255
		c0.866,1.368,2.118,2.503,3.753,3.403c1.635,0.901,3.587,1.352,5.856,1.352c2.269,0,4.204-0.45,5.806-1.352
		c1.602-0.9,2.836-2.035,3.703-3.403c0.867-1.367,1.553-3.119,2.053-5.255c0.5-2.135,0.816-4.137,0.951-6.006
		c0.133-1.868,0.199-4.07,0.199-6.606V59.995h36.336v113.711c0,9.209-0.785,17.051-2.352,23.522
		c-1.569,6.474-4.189,12.112-7.858,16.917c-3.671,4.805-8.708,8.358-15.114,10.66C723.147,227.108,715.239,228.259,705.83,228.259z"
		/>
</g>
<g>
	<g>
		<g>
			<path fill="#231F20" d="M235.405,144.066h-164.1v-33.467c0-43.835,35.535-79.37,79.371-79.37h5.359
				c43.836,0,79.369,35.535,79.369,79.37V144.066z"/>
		</g>
	</g>
</g>
<g>
	<g>
		<g>
			<path fill="#FFFFFF" d="M122.516,75.256c-12.99,7.393-22.58,14.545-27.373,11.127c-4.789-3.415-3.287-16.879,11.949-28.604
				c15.238-11.729,30.242-10.71,34.088-5.591C145.659,58.145,139.616,65.523,122.516,75.256z"/>
		</g>
	</g>
</g>
<g>
	<g>
		<g>
			<path fill="#231F20" d="M264.145,166.489c-15.203-1.225-64.404-1.256-110.791-0.963c-46.383-0.293-95.588-0.262-110.793,0.963
				c-31.145,2.511-19.09,35.165-5.023,45.72c5.125,3.845,28.699,6.485,43.82,8.292v-21.378h143.996V220.5
				c15.119-1.807,38.691-4.447,43.818-8.292C283.237,201.654,295.292,169,264.145,166.489z"/>
		</g>
	</g>
</g>
<g>
	<g>
		<g>
			<path fill="#FF6A00" d="M153.989,220.521l-0.006-0.021c0,0-0.221,0-0.637,0.007c-0.416-0.007-0.639-0.007-0.639-0.007
				l-0.004,0.021c-8.559,0.269-57.361,3.933-55.986,52.977c1.506,53.746,38.344,66.304,54.086,64.794
				c0.928-0.085,4.268,0.348,6.623,0.102c16.484,0.581,51.104-12.833,52.566-64.896C211.368,224.454,162.553,220.79,153.989,220.521
				z"/>
		</g>
	</g>
</g>
<g>
	<g>
		<g>
			<path fill="#FF6A00" d="M153.989,220.521l-0.006-0.021c0,0-0.221,0-0.637,0.007c-0.416-0.007-0.639-0.007-0.639-0.007
				l-0.004,0.021c-8.559,0.269-57.361,3.933-55.986,52.977c1.506,53.746,38.344,66.304,54.086,64.794
				c0.928-0.085,4.268,0.348,6.623,0.102c16.484,0.581,51.104-12.833,52.566-64.896C211.368,224.454,162.553,220.79,153.989,220.521
				z"/>
		</g>
	</g>
</g>
<g>
	<path fill="#B24B04" d="M157.426,318.381c-2.355,0.246-5.695-0.187-6.623-0.102c-14.828,1.422-48.367-9.643-53.473-55.847
		c-0.5,3.405-0.725,7.083-0.613,11.064c1.506,53.746,38.344,66.304,54.086,64.794c0.928-0.085,4.268,0.348,6.623,0.102
		c16.484,0.581,51.104-12.833,52.566-64.896c0.111-3.985-0.113-7.667-0.615-11.075C204.442,307.096,172.924,318.928,157.426,318.381
		z"/>
</g>
<g>
	<g>
		<g>
			<path fill="#FFFFFF" d="M163.405,251.39h-20.098c-10.82,0-19.592,8.767-19.592,19.59c0,10.818,8.771,19.592,19.592,19.592h0.166
				v-6.697c0-5.452,4.424-9.874,9.879-9.874c5.457,0,9.879,4.422,9.879,9.874v6.697h0.174c10.818,0,19.588-8.773,19.588-19.592
				C182.993,260.157,174.223,251.39,163.405,251.39z"/>
		</g>
	</g>
</g>
<g>
	<g>
		<g>
			<path fill="#231F20" d="M168.956,266.961h-31.203c-2.217,0-4.018-1.799-4.018-4.018c0-2.218,1.801-4.016,4.018-4.016h31.203
				c2.219,0,4.02,1.798,4.02,4.016C172.975,265.163,171.174,266.961,168.956,266.961z"/>
		</g>
	</g>
</g>
<g>
	<path fill="#58595B" d="M356.656,280.537h-2.432v-22.793h2.432V280.537z"/>
	<path fill="#58595B" d="M368.595,280.83c-2.373,0-4.246-0.723-5.618-2.168s-2.058-3.452-2.058-6.021
		c0-2.588,0.637-4.644,1.912-6.167s2.986-2.285,5.134-2.285c2.012,0,3.604,0.662,4.775,1.984c1.172,1.324,1.758,3.069,1.758,5.237
		v1.538h-11.06c0.049,1.885,0.525,3.315,1.428,4.292s2.175,1.465,3.816,1.465c1.729,0,3.438-0.361,5.127-1.084v2.168
		c-0.859,0.371-1.672,0.638-2.439,0.798C370.604,280.75,369.679,280.83,368.595,280.83z M367.936,266.225
		c-1.289,0-2.317,0.42-3.083,1.26s-1.218,2.002-1.355,3.486h8.394c0-1.533-0.342-2.707-1.025-3.522S369.205,266.225,367.936,266.225
		z"/>
	<path fill="#58595B" d="M383.829,278.823c0.43,0,0.845-0.031,1.245-0.095s0.718-0.13,0.952-0.198v1.86
		c-0.264,0.127-0.652,0.231-1.165,0.314s-0.974,0.125-1.384,0.125c-3.105,0-4.658-1.636-4.658-4.907v-9.551h-2.3V265.2l2.3-1.011
		l1.025-3.428h1.406v3.721h4.658v1.89h-4.658v9.448c0,0.967,0.229,1.709,0.688,2.227S383.028,278.823,383.829,278.823z"/>
	<path fill="#58595B" d="M391.183,259.121l0.22,0.322c-0.254,0.977-0.62,2.112-1.099,3.406s-0.977,2.497-1.494,3.61h-1.787
		c0.684-2.783,1.182-5.229,1.494-7.339H391.183z"/>
	<path fill="#58595B" d="M404.688,276.157c0,1.494-0.557,2.646-1.67,3.457s-2.676,1.216-4.688,1.216
		c-2.129,0-3.789-0.337-4.98-1.011v-2.256c0.771,0.391,1.599,0.698,2.483,0.923s1.736,0.337,2.556,0.337
		c1.27,0,2.246-0.202,2.93-0.608c0.684-0.404,1.025-1.022,1.025-1.853c0-0.625-0.271-1.159-0.813-1.604
		c-0.542-0.443-1.599-0.969-3.171-1.574c-1.494-0.557-2.556-1.042-3.186-1.457s-1.099-0.887-1.406-1.414s-0.461-1.157-0.461-1.89
		c0-1.309,0.532-2.341,1.597-3.099c1.064-0.756,2.524-1.135,4.38-1.135c1.729,0,3.418,0.352,5.068,1.055l-0.864,1.978
		c-1.611-0.664-3.071-0.996-4.38-0.996c-1.152,0-2.021,0.181-2.607,0.542s-0.879,0.859-0.879,1.494c0,0.43,0.11,0.796,0.33,1.099
		s0.574,0.591,1.062,0.864s1.426,0.669,2.812,1.187c1.904,0.693,3.191,1.392,3.86,2.095S404.688,275.092,404.688,276.157z"/>
	<path fill="#58595B" d="M450.172,276.157c0,1.494-0.557,2.646-1.67,3.457s-2.676,1.216-4.688,1.216
		c-2.129,0-3.789-0.337-4.98-1.011v-2.256c0.771,0.391,1.599,0.698,2.482,0.923s1.736,0.337,2.557,0.337
		c1.27,0,2.246-0.202,2.93-0.608c0.684-0.404,1.025-1.022,1.025-1.853c0-0.625-0.271-1.159-0.813-1.604
		c-0.542-0.443-1.599-0.969-3.171-1.574c-1.494-0.557-2.557-1.042-3.187-1.457s-1.099-0.887-1.406-1.414s-0.461-1.157-0.461-1.89
		c0-1.309,0.532-2.341,1.597-3.099c1.064-0.756,2.524-1.135,4.38-1.135c1.729,0,3.418,0.352,5.068,1.055l-0.864,1.978
		c-1.611-0.664-3.071-0.996-4.38-0.996c-1.152,0-2.021,0.181-2.607,0.542s-0.879,0.859-0.879,1.494c0,0.43,0.109,0.796,0.329,1.099
		s0.574,0.591,1.062,0.864s1.426,0.669,2.812,1.187c1.904,0.693,3.19,1.392,3.859,2.095S450.172,275.092,450.172,276.157z"/>
	<path fill="#58595B" d="M465.113,280.537v-10.386c0-1.309-0.298-2.285-0.894-2.93s-1.528-0.967-2.798-0.967
		c-1.689,0-2.923,0.459-3.699,1.377s-1.164,2.422-1.164,4.512v8.394h-2.432v-22.793h2.432v6.899c0,0.83-0.039,1.519-0.117,2.065
		h0.146c0.479-0.771,1.159-1.379,2.043-1.824c0.884-0.443,1.893-0.666,3.025-0.666c1.963,0,3.435,0.467,4.416,1.398
		c0.981,0.934,1.473,2.415,1.473,4.446v10.474H465.113z"/>
	<path fill="#58595B" d="M486.397,272.495c0,2.617-0.659,4.661-1.978,6.13c-1.318,1.471-3.14,2.205-5.464,2.205
		c-1.436,0-2.71-0.337-3.823-1.011s-1.973-1.641-2.578-2.9s-0.908-2.734-0.908-4.424c0-2.617,0.654-4.655,1.963-6.116
		c1.309-1.459,3.125-2.189,5.449-2.189c2.246,0,4.03,0.747,5.354,2.241S486.397,269.946,486.397,272.495z M474.166,272.495
		c0,2.051,0.41,3.613,1.23,4.688s2.026,1.611,3.618,1.611s2.8-0.534,3.625-1.604c0.825-1.068,1.238-2.634,1.238-4.694
		c0-2.041-0.413-3.591-1.238-4.651c-0.825-1.059-2.043-1.589-3.654-1.589c-1.592,0-2.793,0.522-3.604,1.567
		S474.166,270.424,474.166,272.495z"/>
	<path fill="#58595B" d="M497.984,264.189c0.713,0,1.353,0.059,1.919,0.176l-0.337,2.256c-0.664-0.146-1.25-0.22-1.758-0.22
		c-1.299,0-2.41,0.527-3.333,1.582s-1.384,2.368-1.384,3.94v8.613h-2.432v-16.055h2.007l0.278,2.974h0.117
		c0.596-1.045,1.313-1.851,2.153-2.417S496.979,264.189,497.984,264.189z"/>
	<path fill="#58595B" d="M508.092,278.823c0.43,0,0.845-0.031,1.245-0.095s0.718-0.13,0.952-0.198v1.86
		c-0.264,0.127-0.652,0.231-1.165,0.314s-0.974,0.125-1.384,0.125c-3.105,0-4.658-1.636-4.658-4.907v-9.551h-2.3V265.2l2.3-1.011
		l1.025-3.428h1.406v3.721h4.658v1.89h-4.658v9.448c0,0.967,0.229,1.709,0.688,2.227S507.291,278.823,508.092,278.823z"/>
	<path fill="#58595B" d="M520.279,280.83c-2.373,0-4.246-0.723-5.618-2.168s-2.058-3.452-2.058-6.021
		c0-2.588,0.637-4.644,1.911-6.167s2.986-2.285,5.135-2.285c2.012,0,3.604,0.662,4.775,1.984c1.172,1.324,1.758,3.069,1.758,5.237
		v1.538h-11.06c0.049,1.885,0.524,3.315,1.428,4.292s2.176,1.465,3.816,1.465c1.729,0,3.438-0.361,5.127-1.084v2.168
		c-0.859,0.371-1.673,0.638-2.439,0.798C522.288,280.75,521.363,280.83,520.279,280.83z M519.62,266.225
		c-1.289,0-2.317,0.42-3.084,1.26s-1.218,2.002-1.354,3.486h8.394c0-1.533-0.342-2.707-1.025-3.522S520.89,266.225,519.62,266.225z"
		/>
	<path fill="#58595B" d="M541.314,280.537v-10.386c0-1.309-0.298-2.285-0.894-2.93s-1.528-0.967-2.798-0.967
		c-1.68,0-2.91,0.454-3.691,1.362s-1.172,2.407-1.172,4.497v8.423h-2.432v-16.055h1.978l0.396,2.197h0.117
		c0.498-0.791,1.196-1.403,2.095-1.838s1.899-0.652,3.003-0.652c1.934,0,3.389,0.467,4.365,1.398
		c0.977,0.934,1.465,2.425,1.465,4.476v10.474H541.314z"/>
	<path fill="#58595B" d="M577.306,278.823c0.43,0,0.845-0.031,1.245-0.095s0.718-0.13,0.952-0.198v1.86
		c-0.264,0.127-0.652,0.231-1.165,0.314s-0.974,0.125-1.384,0.125c-3.105,0-4.658-1.636-4.658-4.907v-9.551h-2.3V265.2l2.3-1.011
		l1.025-3.428h1.406v3.721h4.658v1.89h-4.658v9.448c0,0.967,0.229,1.709,0.688,2.227S576.505,278.823,577.306,278.823z"/>
	<path fill="#58595B" d="M593.697,280.537v-10.386c0-1.309-0.298-2.285-0.894-2.93s-1.528-0.967-2.798-0.967
		c-1.689,0-2.923,0.459-3.699,1.377s-1.164,2.422-1.164,4.512v8.394h-2.432v-22.793h2.432v6.899c0,0.83-0.039,1.519-0.117,2.065
		h0.146c0.479-0.771,1.159-1.379,2.043-1.824c0.884-0.443,1.893-0.666,3.025-0.666c1.963,0,3.435,0.467,4.416,1.398
		c0.981,0.934,1.473,2.415,1.473,4.446v10.474H593.697z"/>
	<path fill="#58595B" d="M610.997,280.537l-0.483-2.285h-0.117c-0.801,1.006-1.6,1.688-2.396,2.043
		c-0.796,0.356-1.789,0.535-2.98,0.535c-1.592,0-2.84-0.41-3.743-1.23s-1.354-1.987-1.354-3.501c0-3.242,2.593-4.941,7.778-5.098
		l2.725-0.088v-0.996c0-1.26-0.271-2.19-0.813-2.79c-0.542-0.602-1.408-0.901-2.6-0.901c-1.338,0-2.852,0.41-4.541,1.23l-0.747-1.86
		c0.791-0.43,1.657-0.767,2.6-1.011s1.888-0.366,2.835-0.366c1.914,0,3.332,0.425,4.255,1.274c0.924,0.85,1.385,2.212,1.385,4.087
		v10.957H610.997z M605.504,278.823c1.514,0,2.702-0.415,3.566-1.245s1.297-1.992,1.297-3.486v-1.45l-2.432,0.103
		c-1.934,0.068-3.328,0.369-4.183,0.9c-0.854,0.533-1.281,1.36-1.281,2.483c0,0.879,0.266,1.548,0.798,2.007
		S604.547,278.823,605.504,278.823z"/>
	<path fill="#58595B" d="M622.994,278.823c0.43,0,0.845-0.031,1.245-0.095s0.718-0.13,0.952-0.198v1.86
		c-0.264,0.127-0.652,0.231-1.164,0.314c-0.514,0.083-0.975,0.125-1.385,0.125c-3.105,0-4.658-1.636-4.658-4.907v-9.551h-2.3V265.2
		l2.3-1.011l1.025-3.428h1.406v3.721h4.658v1.89h-4.658v9.448c0,0.967,0.229,1.709,0.688,2.227S622.193,278.823,622.994,278.823z"/>
	<path fill="#58595B" d="M716.407,264.482v10.415c0,1.309,0.298,2.285,0.894,2.93s1.528,0.967,2.798,0.967
		c1.68,0,2.908-0.459,3.684-1.377c0.777-0.918,1.165-2.417,1.165-4.497v-8.438h2.432v16.055h-2.007l-0.352-2.153h-0.132
		c-0.498,0.791-1.189,1.396-2.073,1.816s-1.892,0.63-3.024,0.63c-1.953,0-3.416-0.464-4.388-1.392s-1.457-2.412-1.457-4.453v-10.503
		H716.407z"/>
	<path fill="#58595B" d="M739.859,264.189c0.713,0,1.353,0.059,1.919,0.176l-0.337,2.256c-0.664-0.146-1.25-0.22-1.758-0.22
		c-1.299,0-2.41,0.527-3.332,1.582c-0.924,1.055-1.385,2.368-1.385,3.94v8.613h-2.432v-16.055h2.007l0.278,2.974h0.117
		c0.596-1.045,1.313-1.851,2.153-2.417S738.854,264.189,739.859,264.189z"/>
	<path fill="#58595B" d="M747.213,280.537h-2.432v-22.793h2.432V280.537z"/>
</g>
<g>
	<rect x="410.764" y="271.417" fill="#58595B" width="22.382" height="2.333"/>
</g>
<g>
	<rect x="550.479" y="271.4" fill="#58595B" width="14.167" height="2.333"/>
</g>
<g>
	<rect x="631.343" y="271.4" fill="#58595B" width="78.342" height="2.333"/>
</g>
</svg>
