<?xml version="1.0" standalone="no"?>
<!DOCTYPE svg PUBLIC "-//W3C//DTD SVG 20010904//EN"
 "http://www.w3.org/TR/2001/REC-SVG-20010904/DTD/svg10.dtd">
<svg version="1.0" xmlns="http://www.w3.org/2000/svg"
 width="196.000000pt" height="196.000000pt" viewBox="0 0 196.000000 196.000000"
 preserveAspectRatio="xMidYMid meet">
<metadata>
Created by potrace 1.11, written by Peter Selinger 2001-2013
</metadata>
<g transform="translate(0.000000,196.000000) scale(0.100000,-0.100000)"
fill="#000000" stroke="none">
<path d="M875 1703 c-289 -53 -659 -275 -747 -447 -12 -22 -27 -66 -33 -96
-21 -100 -13 -142 105 -528 l31 -102 -44 -53 c-64 -74 -123 -197 -96 -197 6 0
8 -4 4 -9 -3 -5 -2 -12 2 -14 14 -9 67 20 119 64 105 89 351 269 367 269 3 0
38 19 79 43 258 151 596 259 1078 342 52 9 105 18 117 21 23 4 25 23 5 47 -14
17 -101 36 -190 42 -35 2 -65 5 -66 7 -1 2 -15 28 -30 58 -16 30 -42 75 -58
99 -16 24 -47 80 -70 125 -70 139 -142 233 -213 280 -86 55 -225 75 -360 49z
m-80 -42 c-6 -4 -44 -21 -85 -36 -41 -16 -85 -35 -98 -43 -12 -8 -25 -13 -27
-10 -6 6 75 47 150 75 69 25 72 26 60 14z m63 -6 c-9 -9 -141 -56 -145 -51 -2
2 27 15 64 29 67 26 91 32 81 22z m-54 -46 c-4 -8 4 -9 27 -5 19 4 -13 -13
-71 -37 -58 -24 -115 -49 -127 -55 -12 -7 -28 -12 -35 -12 -7 1 8 10 34 21 31
14 45 26 41 35 -3 9 2 14 13 14 16 0 17 -2 4 -11 -12 -8 -11 -10 5 -7 11 2 20
9 20 17 0 7 20 22 45 32 55 22 53 21 44 8z m-192 -55 c-52 -25 -92 -48 -89
-50 3 -3 27 6 54 19 63 30 83 38 83 31 0 -3 -29 -19 -65 -36 -37 -17 -64 -32
-61 -35 2 -3 14 1 26 7 12 6 24 9 27 6 3 -2 -10 -12 -28 -20 -19 -8 -68 -33
-109 -56 -41 -22 -64 -32 -50 -21 14 11 44 29 68 41 46 23 55 35 20 25 -17 -4
-15 -1 7 11 17 10 25 19 19 21 -7 2 -49 -18 -95 -46 -46 -27 -86 -47 -88 -45
-6 5 -8 3 89 59 96 55 260 135 275 134 6 0 -32 -20 -83 -45z m273 37 c-6 -5
-41 -21 -80 -36 -125 -47 -168 -67 -257 -112 -84 -43 -111 -62 -68 -48 39 12
19 -5 -42 -37 -82 -43 -85 -44 -71 -26 7 8 10 17 7 20 -13 14 233 140 391 201
137 53 134 52 120 38z m-335 -35 c0 -2 -7 -7 -16 -10 -8 -3 -12 -2 -9 4 6 10
25 14 25 6z m230 -35 c-120 -48 -253 -111 -247 -117 3 -3 33 8 68 24 133 61
162 73 165 69 3 -2 -24 -17 -58 -32 -35 -15 -116 -54 -180 -86 -65 -32 -118
-57 -118 -54 0 2 25 19 55 37 32 19 50 35 43 39 -6 4 7 16 33 30 64 33 301
128 319 128 8 0 -28 -17 -80 -38z m85 9 c-3 -5 -14 -10 -23 -9 -14 0 -13 2 3
9 27 11 27 11 20 0z m-400 -20 c-3 -5 -12 -10 -18 -10 -7 0 -6 4 3 10 19 12
23 12 15 0z m355 -15 c0 -6 -56 -35 -67 -35 -4 1 8 9 27 20 39 22 40 22 40 15z
m-430 -29 c0 -2 -7 -7 -16 -10 -8 -3 -12 -2 -9 4 6 10 25 14 25 6z m425 -4
c-6 -5 -37 -19 -70 -32 -33 -13 -104 -45 -157 -72 -102 -50 -113 -54 -103 -38
9 14 -1 12 -36 -6 -17 -8 -28 -18 -25 -21 3 -3 12 0 20 7 9 6 21 10 28 7 7 -2
-5 -12 -26 -21 -22 -9 -37 -19 -33 -22 3 -3 15 0 27 6 12 6 24 9 27 6 3 -2
-21 -18 -53 -35 -60 -30 -105 -60 -92 -61 4 0 47 23 95 50 48 28 91 50 95 50
19 0 4 -12 -49 -39 -60 -30 -104 -60 -90 -61 4 0 32 14 63 31 30 17 57 29 60
26 3 -3 -13 -15 -36 -27 -23 -12 -40 -24 -37 -27 3 -3 41 15 84 38 43 24 82
46 88 48 5 2 33 14 60 26 28 12 68 29 90 37 22 9 69 28 104 42 35 15 66 24 69
22 3 -3 -8 -10 -24 -16 -72 -26 -85 -33 -74 -40 8 -5 7 -9 -5 -13 -9 -4 -13
-3 -10 3 3 6 2 10 -4 10 -25 0 -332 -144 -369 -173 -26 -21 -2 -18 33 3 20 12
38 20 41 17 3 -3 -8 -13 -26 -22 -18 -9 -30 -18 -28 -20 2 -2 66 27 143 65 77
38 147 70 155 70 8 0 -59 -38 -150 -84 -91 -46 -184 -94 -205 -108 -52 -32
-85 -50 -85 -44 0 2 32 23 71 46 39 23 68 44 65 47 -3 3 -27 -7 -53 -23 -29
-17 -43 -21 -34 -11 16 20 8 22 -21 6 -13 -7 -17 -14 -10 -18 7 -4 3 -12 -11
-20 -20 -13 -21 -13 -8 2 17 21 2 22 -27 1 -13 -9 -28 -12 -37 -7 -11 7 0 19
48 51 64 43 101 57 58 22 -13 -11 -20 -20 -17 -20 13 0 88 52 82 57 -3 3 -13
0 -22 -7 -13 -11 -17 -11 -24 0 -7 11 -16 9 -47 -12 -46 -30 -83 -50 -83 -45
0 3 18 17 41 31 41 28 49 47 10 26 -12 -6 -21 -9 -21 -6 0 2 32 23 70 46 65
39 89 60 56 47 -8 -3 -16 -1 -19 6 -2 7 -16 3 -38 -12 l-34 -23 30 26 c32 27
23 37 -11 11 -10 -8 -23 -15 -28 -15 -15 0 4 14 59 44 31 17 41 20 26 8 l-24
-20 22 -7 c14 -4 27 -2 35 5 8 10 7 12 -7 7 -34 -12 -7 12 51 45 64 37 223
110 228 105 2 -2 -42 -25 -97 -51 -56 -26 -99 -49 -96 -52 3 -3 36 11 73 30
57 29 238 104 254 106 2 0 0 -4 -5 -8z m-360 -12 c-3 -5 -12 -10 -18 -10 -7 0
-6 4 3 10 19 12 23 12 15 0z m275 0 c-8 -5 -19 -10 -25 -10 -5 0 -3 5 5 10 8
5 20 10 25 10 6 0 3 -5 -5 -10z m57 -26 c-16 -9 -31 -13 -34 -10 -3 3 5 10 18
15 37 15 47 12 16 -5z m68 7 c-6 -5 -59 -30 -118 -55 -60 -26 -125 -57 -145
-68 -37 -21 -143 -38 -112 -17 42 27 250 122 256 116 3 -2 -18 -14 -47 -26
-28 -12 -49 -24 -47 -27 3 -2 52 16 109 40 114 49 117 50 104 37z m75 -6 c-14
-8 -32 -14 -40 -14 -8 0 -1 6 15 14 40 18 57 18 25 0z m-85 -30 c-16 -8 -57
-26 -90 -40 -33 -15 -100 -47 -149 -71 -48 -25 -93 -43 -100 -41 -6 3 34 26
89 51 55 26 114 53 130 61 48 23 129 54 140 54 6 0 -3 -6 -20 -14z m-528 -9
c0 -8 -6 -12 -15 -9 -11 5 -11 7 0 14 7 5 13 9 14 9 0 0 1 -6 1 -14z m16 -63
c-5 -12 -3 -14 8 -9 8 4 3 -2 -11 -13 -14 -11 -29 -21 -34 -21 -6 0 -1 7 10
15 10 8 15 15 10 15 -5 0 -3 7 4 15 16 20 21 19 13 -2z m632 7 c-3 -5 -11 -10
-16 -10 -6 0 -7 5 -4 10 3 6 11 10 16 10 6 0 7 -4 4 -10z m-210 -30 c-144 -69
-238 -110 -242 -106 -9 8 246 125 272 125 6 0 -8 -9 -30 -19z m-21 -65 c-25
-19 -11 -19 26 0 17 9 30 13 30 10 0 -2 -18 -14 -40 -25 -22 -11 -40 -25 -40
-30 0 -6 14 -4 30 5 17 9 30 13 30 10 0 -9 -230 -118 -236 -112 -3 3 33 24 80
47 81 38 112 60 65 45 -15 -5 -19 -4 -15 4 12 19 -4 13 -108 -39 -56 -28 -92
-43 -81 -34 22 17 254 133 269 134 6 0 1 -7 -10 -15z m751 -5 c-4 -6 -3 -17 2
-23 4 -7 1 -5 -9 5 -22 25 -31 23 -18 -4 11 -22 10 -22 -4 -4 -18 22 -12 36
15 36 12 0 17 -5 14 -10z m-46 -34 c29 -47 26 -56 -4 -12 -14 20 -25 39 -25
41 0 12 10 2 29 -29z m-1144 15 c3 -5 2 -12 -3 -15 -5 -3 -9 1 -9 9 0 17 3 19
12 6z m1061 -18 c15 -24 15 -26 1 -14 -21 17 -22 3 -1 -27 8 -12 11 -22 6 -22
-4 0 -16 16 -26 36 -9 20 -19 34 -22 31 -3 -3 2 -19 11 -36 8 -17 13 -31 11
-31 -3 0 -12 14 -21 30 -9 17 -20 30 -26 30 -6 0 -1 -15 10 -34 12 -18 21 -37
21 -42 -1 -5 -8 4 -16 20 -11 20 -18 25 -24 17 -5 -9 -9 -8 -13 4 -5 12 -11
14 -25 6 -13 -7 -23 -6 -32 2 -10 10 -12 8 -6 -8 6 -15 4 -17 -5 -8 -19 19
-40 5 -28 -20 10 -21 10 -21 -5 -3 -22 27 -20 7 5 -51 11 -26 16 -43 10 -38
-14 15 -53 117 -41 110 5 -3 10 -2 10 3 0 10 36 30 65 37 19 4 118 32 121 34
1 1 10 -11 20 -26z m45 -28 l10 -20 -16 20 c-9 11 -21 29 -26 40 l-10 20 16
-20 c9 -11 21 -29 26 -40z m-751 10 c0 -5 -98 -58 -175 -93 -77 -36 -41 -9 65
47 92 49 110 56 110 46z m245 -5 c-3 -5 -12 -10 -18 -10 -7 0 -6 4 3 10 19 12
23 12 15 0z m-95 -5 c0 -8 -62 -37 -67 -31 -3 3 10 12 28 20 42 18 39 17 39
11z m750 -15 c6 -11 8 -20 6 -20 -3 0 -10 9 -16 20 -6 11 -8 20 -6 20 3 0 10
-9 16 -20z m-821 6 c-5 -5 -268 -139 -291 -148 -34 -14 -17 2 25 23 23 12 37
24 30 26 -6 2 -23 -3 -37 -13 -14 -9 -26 -14 -26 -11 0 7 83 57 95 57 5 0 0
-7 -11 -15 -33 -25 -11 -17 97 35 91 43 132 59 118 46z m400 -83 c17 -40 31
-76 31 -81 0 -12 -87 -35 -101 -27 -5 4 -9 1 -9 -6 0 -6 -8 -9 -18 -7 -10 3
-24 -2 -31 -9 -18 -20 -32 2 -25 37 4 17 3 21 -4 12 -7 -11 -11 -10 -16 4 -3
9 -4 19 -1 22 3 3 5 -1 5 -9 0 -11 2 -11 10 1 9 13 10 13 11 0 0 -10 3 -9 8 4
7 19 8 19 13 -2 4 -14 2 -20 -5 -15 -6 4 -8 -2 -5 -15 4 -14 2 -20 -4 -15 -7
4 -8 1 -3 -7 6 -10 10 -10 20 3 9 13 14 14 25 4 10 -10 10 -8 0 12 -15 28 4
57 20 31 9 -13 10 -13 11 0 0 9 4 7 11 -7 16 -33 42 -30 34 3 -4 15 -3 23 2
20 5 -3 3 13 -5 37 -18 52 -27 62 -19 22 l6 -30 -15 32 c-11 24 -20 31 -36 28
-30 -6 -33 -11 -20 -32 10 -17 10 -17 11 2 0 17 2 17 10 5 5 -8 10 -18 10 -22
0 -12 -31 -2 -41 13 -7 12 -9 12 -9 -1 0 -11 -3 -10 -12 4 -10 18 -11 18 -25
-5 -11 -18 -13 -19 -9 -4 6 19 5 19 -8 2 -11 -14 -15 -15 -20 -5 -3 7 -4 3 -2
-10 2 -12 0 -20 -5 -16 -11 6 -12 -7 -2 -31 5 -14 8 -12 20 11 7 16 11 21 8
11 -13 -48 -16 -72 -7 -59 13 19 24 -11 13 -39 -6 -18 -11 -12 -30 40 -12 34
-20 65 -16 70 3 5 -1 11 -7 14 -7 2 -11 7 -8 10 13 13 196 85 202 79 4 -4 21
-39 37 -79z m369 62 c-3 -3 -9 2 -12 12 -6 14 -5 15 5 6 7 -7 10 -15 7 -18z
m-247 -56 c3 8 10 1 17 -15 12 -28 12 -28 -4 -9 -16 20 -16 20 -11 -2 8 -36 0
-27 -23 23 -25 57 -26 71 -1 25 10 -19 20 -29 22 -22z m43 35 c3 -8 2 -12 -4
-9 -6 3 -10 1 -10 -6 0 -7 -2 -10 -5 -7 -5 5 4 38 10 38 2 0 6 -7 9 -16z m130
0 c3 -8 2 -12 -4 -9 -6 3 -10 10 -10 16 0 14 7 11 14 -7z m-739 -7 c-34 -23
-208 -107 -213 -103 -2 3 45 30 104 60 105 53 150 71 109 43z m60 3 c-4 -6
-36 -24 -72 -41 -36 -17 -63 -33 -60 -36 3 -2 45 14 93 36 48 23 92 41 98 41
6 0 -56 -32 -139 -70 -163 -77 -253 -122 -300 -152 l-30 -20 30 26 c17 15 29
31 28 36 -2 5 3 7 11 4 8 -3 32 4 55 16 43 22 55 36 21 25 -52 -17 -8 10 108
65 70 33 134 65 142 70 20 12 22 12 15 0z m713 -15 c-3 -3 -9 2 -12 12 -6 14
-5 15 5 6 7 -7 10 -15 7 -18z m-371 -43 c13 -9 14 -15 6 -23 -9 -9 -16 -2 -27
26 -9 21 -16 43 -15 49 0 6 5 0 10 -14 5 -14 17 -31 26 -38z m125 -14 c10 -21
16 -38 13 -38 -7 0 -45 78 -44 92 0 9 2 8 6 -2 3 -8 14 -32 25 -52z m-336 -3
c27 -62 28 -69 14 -60 -13 8 -13 -5 0 -25 9 -13 10 -13 10 0 0 13 1 13 10 0
13 -20 13 -40 0 -40 -6 0 -39 -13 -74 -30 -87 -40 -87 -40 -91 0 l-3 35 14
-28 c16 -30 27 -37 17 -9 -6 15 -5 15 11 3 14 -12 12 -3 -8 43 -14 32 -26 61
-26 64 0 3 -3 3 -6 0 -3 -3 2 -23 10 -43 20 -46 20 -58 1 -25 -9 15 -14 19
-15 10 0 -13 -1 -13 -10 0 -13 20 -13 33 0 25 6 -4 7 1 3 11 -5 14 -7 14 -14
1 -6 -9 -3 -29 6 -51 9 -22 13 -47 9 -63 -7 -27 -8 -27 -27 17 -10 25 -27 66
-38 93 l-19 48 27 10 c15 6 41 17 58 24 24 12 100 41 113 44 2 1 14 -24 28
-54z m438 39 c3 -8 2 -12 -4 -9 -6 3 -10 10 -10 16 0 14 7 11 14 -7z m-908 -3
c-4 -5 -1 -11 6 -13 6 -2 -9 -16 -35 -31 -26 -14 -45 -22 -42 -16 4 5 19 16
36 24 16 9 28 19 28 23 -2 12 1 22 7 22 3 0 3 -4 0 -9z m1280 -14 c3 -3 -6 -4
-20 -3 -15 2 -29 6 -32 9 -4 3 6 5 20 3 14 -1 29 -5 32 -9z m-1396 -1 c0 -2
-8 -10 -17 -17 -16 -13 -17 -12 -4 4 13 16 21 21 21 13z m731 -11 c5 4 6 -1 2
-10 -5 -13 -7 -14 -14 -3 -5 7 -8 18 -8 23 0 6 3 4 6 -3 2 -6 9 -10 14 -7z
m302 -25 c5 0 6 8 2 18 -5 14 -4 15 6 5 19 -19 1 -31 -51 -38 -40 -5 -42 -4
-20 6 14 7 29 11 33 10 5 -1 6 9 3 21 l-6 23 11 -22 c7 -13 16 -23 22 -23z
m41 15 c3 -8 1 -15 -4 -15 -6 0 -10 7 -10 15 0 8 2 15 4 15 2 0 6 -7 10 -15z
m84 -1 c-2 -1 -19 -6 -38 -9 -24 -4 -30 -2 -20 4 8 5 18 7 22 5 4 -3 8 -1 8 5
0 6 7 8 15 4 9 -3 14 -7 13 -9z m42 6 c0 -5 -8 -10 -17 -10 -15 0 -16 2 -3 10
19 12 20 12 20 0z m-1095 -31 c-25 -18 -27 -20 -7 -16 33 8 27 2 -28 -27 -27
-14 -50 -24 -50 -21 0 2 13 11 30 20 16 8 29 20 27 25 -2 10 33 39 48 40 6 0
-3 -10 -20 -21z m809 -4 c3 -9 0 -15 -9 -15 -9 0 -12 6 -9 15 4 8 7 15 9 15 2
0 5 -7 9 -15z m384 8 c-10 -2 -18 -8 -18 -13 0 -4 9 -6 20 -3 22 6 28 -12 7
-20 -17 -6 -45 15 -40 31 3 6 14 11 26 11 17 -1 18 -2 5 -6z m62 3 c0 -2 -8
-10 -17 -17 -16 -13 -17 -12 -4 4 13 16 21 21 21 13z m-225 -16 c-3 -5 -1 -10
4 -10 6 0 11 5 11 10 0 6 21 10 48 10 69 -1 32 -18 -55 -26 -45 -4 -77 -3 -89
5 -16 9 -13 10 17 7 20 -2 42 0 50 5 18 11 22 11 14 -1z m-975 -11 c-25 -16
-96 -52 -88 -44 13 14 83 54 93 55 6 0 3 -5 -5 -11z m224 -91 c35 -77 35 -78
15 -92 -18 -12 -25 -11 -62 9 -23 12 -81 35 -129 51 -48 16 -84 32 -80 35 4 4
43 21 87 39 44 17 89 35 100 40 26 10 28 8 69 -82z m681 78 l50 -13 -65 -11
c-36 -6 -83 -14 -105 -17 -55 -9 -237 -53 -286 -70 -22 -8 -47 -11 -56 -8 -11
4 -14 3 -9 -5 5 -8 2 -10 -8 -6 -9 3 -16 1 -16 -5 0 -19 -62 -41 -83 -30 -9 6
-22 7 -27 4 -6 -3 -10 -4 -10 -1 0 3 10 10 21 17 13 7 19 7 15 1 -4 -7 4 -9
21 -7 16 2 35 4 42 4 12 1 12 4 3 13 -10 10 -15 10 -21 -1 -5 -7 -11 -9 -14
-4 -4 6 5 15 19 22 15 6 23 7 19 1 -7 -12 -3 -12 20 -4 13 6 14 9 3 16 -9 6
-5 7 11 3 15 -5 21 -3 17 3 -9 15 21 22 52 12 25 -9 26 -9 8 5 -19 15 -19 15
5 17 13 0 35 0 49 -1 18 -1 21 1 12 7 -11 7 -9 10 7 15 12 3 19 1 16 -3 -6
-10 34 -25 42 -16 4 3 -1 6 -10 6 -9 0 -17 5 -17 10 0 6 3 9 8 8 4 -1 20 4 35
10 16 7 39 9 53 6 16 -4 24 -2 24 7 0 7 3 9 7 6 3 -4 12 -2 20 4 7 6 13 9 13
6 0 -3 12 -2 28 3 38 11 50 11 107 -4z m178 -3 c-13 -2 -35 -2 -50 0 -16 2 -5
4 22 4 28 0 40 -2 28 -4z m-1083 -8 c0 -2 -10 -9 -22 -15 -22 -11 -22 -10 -4
4 21 17 26 19 26 11z m993 -2 c-7 -2 -19 -2 -25 0 -7 3 -2 5 12 5 14 0 19 -2
13 -5z m-1063 -38 c0 -2 -10 -9 -22 -15 -22 -11 -22 -10 -4 4 21 17 26 19 26
11z m40 -55 c0 -5 7 -7 15 -4 14 6 78 -15 169 -56 l48 -22 -83 -53 -84 -53
-21 51 c-12 29 -29 70 -39 92 l-16 40 -13 -24 c-10 -17 -15 -20 -18 -10 -4 11
-8 11 -18 2 -11 -10 -9 -22 7 -65 34 -88 36 -95 19 -68 -8 14 -23 48 -32 75
-10 28 -19 44 -22 37 -4 -13 34 -117 51 -140 5 -7 8 -15 5 -18 -6 -5 -58 99
-59 119 0 6 -4 4 -7 -6 -6 -15 -9 -13 -19 13 -11 29 -10 30 45 65 59 37 72 41
72 25z m10 -83 c0 -5 -4 -5 -10 -2 -13 8 -13 -5 0 -25 9 -13 10 -13 10 0 1 8
11 -7 24 -34 l22 -50 -64 -48 c-34 -26 -66 -48 -70 -48 -4 0 1 7 12 15 12 9
16 20 12 31 -5 13 -3 14 6 6 15 -11 42 10 30 24 -4 4 1 4 11 1 22 -8 23 -9
-18 77 -19 41 -35 81 -34 88 0 7 13 -14 29 -47 16 -33 29 -53 29 -44 1 8 -3
19 -8 25 -5 5 -12 20 -16 34 -5 20 -4 22 5 10 9 -12 10 -9 6 15 l-6 30 15 -25
c8 -14 14 -29 15 -33z m336 9 c18 5 18 5 0 -7 -11 -7 -31 -12 -45 -13 -16 -1
-25 -6 -23 -14 2 -10 -2 -10 -17 -3 -21 12 -32 5 -25 -14 3 -7 0 -16 -7 -21
-7 -4 -10 -3 -5 4 3 6 1 14 -5 18 -7 4 -9 3 -5 -4 7 -12 -22 -45 -34 -37 -5 3
-12 0 -16 -6 -5 -8 -2 -10 7 -5 8 4 5 1 -5 -6 -67 -45 -159 -119 -209 -167
-69 -66 -73 -68 -80 -41 -4 15 10 34 60 79 36 33 71 57 78 54 7 -2 16 1 21 8
4 8 3 10 -4 5 -7 -4 -12 -5 -12 -2 0 8 120 92 194 135 39 22 75 37 84 34 11
-5 13 -3 7 8 -7 12 -6 12 7 1 8 -7 24 -10 34 -6z m-476 -8 c0 -7 3 -24 5 -38
5 -23 4 -23 -6 3 -13 33 -29 36 -22 5 4 -21 3 -21 -7 -5 -9 14 -9 22 0 33 15
17 30 18 30 2z m-36 -63 c8 -25 11 -43 6 -40 -5 3 -11 19 -15 35 -4 17 -11 30
-17 30 -6 0 -7 -7 -4 -15 15 -38 16 -48 1 -22 -13 22 -14 31 -4 43 6 8 13 14
14 14 2 0 10 -20 19 -45z m84 -20 c-3 -3 -9 2 -12 12 -6 14 -5 15 5 6 7 -7 10
-15 7 -18z m442 21 c0 -2 -7 -7 -16 -10 -8 -3 -12 -2 -9 4 6 10 25 14 25 6z
m-544 -123 c-5 -5 -36 86 -35 101 0 6 9 -13 20 -43 10 -30 17 -56 15 -58z
m504 102 c0 -2 -10 -10 -22 -16 -21 -11 -22 -11 -9 4 13 16 31 23 31 12z
m-416 -21 c3 -8 2 -12 -4 -9 -6 3 -10 10 -10 16 0 14 7 11 14 -7z m286 -11 c0
-5 -14 -16 -30 -25 -38 -21 -40 -9 -2 14 33 20 32 20 32 11z m65 -2 c-19 -17
-210 -132 -195 -118 14 15 190 126 200 127 2 0 0 -4 -5 -9z m-140 -49 c-6 -4
-24 -18 -40 -32 -29 -24 -29 -23 2 8 18 17 36 32 40 32 4 0 3 -3 -2 -8z m-276
-72 c0 -10 -3 -8 -9 5 -12 27 -12 43 0 25 5 -8 9 -22 9 -30z m-29 -53 c0 -2
-10 -12 -22 -23 l-23 -19 19 23 c18 21 26 27 26 19z m44 -58 c11 2 10 -3 -5
-26 -7 -13 -17 -23 -22 -23 -4 0 -5 5 -1 12 4 6 3 8 -2 5 -6 -3 -16 -1 -24 4
-12 8 -11 9 5 7 12 -2 20 3 21 12 2 31 5 35 13 22 4 -8 11 -13 15 -13z m-114
-29 c-6 -11 -13 -20 -16 -20 -2 0 0 9 6 20 6 11 13 20 16 20 2 0 0 -9 -6 -20z
m35 -77 c-40 -39 -50 -45 -53 -30 -4 21 15 47 34 47 8 0 14 5 14 11 0 18 34
39 44 29 6 -6 -9 -28 -39 -57z m-25 47 c0 -5 -5 -10 -11 -10 -5 0 -7 5 -4 10
3 6 8 10 11 10 2 0 4 -4 4 -10z m-44 -32 c-9 -12 -16 -19 -16 -15 0 11 24 47
28 42 2 -2 -3 -14 -12 -27z"/>
<path d="M745 1585 c-40 -19 -16 -19 26 0 19 8 27 14 19 14 -8 0 -28 -7 -45
-14z"/>
<path d="M421 1376 c-10 -12 -8 -13 9 -9 25 7 37 23 17 23 -8 0 -20 -6 -26
-14z"/>
<path d="M384 1135 c-10 -8 -14 -15 -8 -15 5 0 19 7 30 15 10 8 14 15 8 15 -5
0 -19 -7 -30 -15z"/>
<path d="M282 1098 c-18 -11 -31 -22 -29 -25 5 -4 77 36 77 43 0 8 -15 2 -48
-18z"/>
<path d="M567 1323 c-27 -14 -46 -27 -43 -30 2 -2 31 9 63 26 32 17 51 30 43
30 -8 -1 -37 -12 -63 -26z"/>
<path d="M680 1210 c-18 -12 -2 -12 25 0 13 6 15 9 5 9 -8 0 -22 -4 -30 -9z"/>
<path d="M1260 1181 c0 -5 5 -13 10 -16 6 -3 10 -2 10 4 0 5 -4 13 -10 16 -5
3 -10 2 -10 -4z"/>
<path d="M1033 997 c4 -10 7 -20 7 -23 0 -2 7 -1 15 2 8 4 15 11 15 17 0 6 -3
7 -7 4 -3 -4 -13 -1 -21 6 -13 10 -15 9 -9 -6z"/>
<path d="M542 1008 c-24 -11 -42 -22 -39 -24 2 -2 28 7 58 21 30 14 47 24 39
24 -8 0 -35 -10 -58 -21z"/>
<path d="M827 1054 c3 -8 9 -12 13 -9 4 3 13 -9 19 -27 15 -42 13 -48 -4 -18
-21 37 -18 19 6 -35 11 -25 23 -44 26 -42 2 3 0 15 -7 26 -6 12 -8 26 -5 31
11 17 -15 78 -35 83 -13 3 -17 1 -13 -9z"/>
<path d="M810 1034 c0 -11 4 -24 9 -29 5 -6 12 -21 15 -35 4 -15 -4 -7 -19 20
-14 25 -23 34 -19 21 4 -15 2 -21 -4 -17 -28 17 -16 -77 13 -106 7 -6 65 17
65 26 0 5 -52 131 -56 135 -2 2 -4 -5 -4 -15z m30 -104 c5 8 9 7 13 -5 4 -9 3
-13 -3 -10 -6 3 -10 0 -10 -7 -1 -7 -7 -2 -15 12 -8 14 -14 19 -15 11 0 -20
-29 19 -29 39 0 9 6 5 14 -10 l15 -25 -5 30 c-5 27 -4 26 11 -8 10 -24 20 -34
24 -27z"/>
<path d="M770 1021 c0 -7 -4 -9 -10 -6 -5 3 -10 2 -10 -4 0 -5 4 -12 9 -15 10
-6 25 24 16 32 -3 3 -5 0 -5 -7z"/>
<path d="M694 925 c17 -41 35 -73 36 -63 0 11 -39 98 -45 98 -3 0 1 -16 9 -35z"/>
<path d="M629 953 c14 -28 14 -30 -4 -30 -9 0 -14 6 -11 12 2 6 -2 12 -10 12
-17 0 -17 -5 1 -37 13 -22 14 -23 15 -5 l1 20 9 -20 c5 -11 9 -15 9 -8 1 6 3
17 6 25 3 7 -2 22 -10 33 -16 19 -16 19 -6 -2z"/>
<path d="M570 948 c0 -11 -6 -15 -21 -11 -15 4 -22 0 -26 -16 -5 -20 -6 -20
-19 -4 -9 12 -13 14 -14 5 0 -7 -4 -10 -10 -7 -6 3 -7 -1 -3 -10 5 -13 7 -14
14 -3 5 8 9 9 9 2 0 -9 33 -25 48 -23 2 0 10 -8 18 -18 7 -10 14 -13 14 -8 0
6 5 3 11 -5 8 -12 9 -10 4 8 -6 22 -5 22 14 10 12 -7 24 -22 27 -32 6 -18 7
-18 19 3 10 20 13 21 18 7 4 -10 3 -15 -3 -11 -6 3 -10 2 -10 -4 0 -5 5 -13
10 -16 19 -12 20 21 1 60 -17 36 -19 37 -26 15 -6 -17 -9 -20 -16 -9 -7 12 -9
11 -10 -1 0 -8 -11 8 -25 35 -13 28 -24 43 -24 33z m-20 -29 c0 8 2 12 5 10 2
-3 2 -15 -2 -28 -4 -17 -8 -19 -14 -9 -5 7 -9 20 -9 28 0 13 1 13 10 0 8 -12
10 -12 10 -1z m33 -38 c-4 -17 -8 -19 -14 -9 -12 19 -11 30 2 22 8 -4 9 1 5
17 -5 18 -5 20 3 8 6 -8 7 -26 4 -38z m68 -28 c-12 -20 -14 -14 -5 12 4 9 9
14 11 11 3 -2 0 -13 -6 -23z"/>
<path d="M1275 970 c-4 -6 -11 -8 -16 -4 -5 3 -15 1 -22 -4 -7 -5 -21 -12 -32
-15 -11 -3 3 -3 30 0 28 3 51 9 53 13 1 3 17 5 35 3 29 -2 30 -2 7 6 -35 12
-48 13 -55 1z"/>
<path d="M1120 940 c0 -7 -7 -9 -17 -5 -14 5 -15 3 -6 -5 7 -8 17 -9 28 -2 12
6 14 11 6 16 -6 4 -11 2 -11 -4z"/>
<path d="M987 899 c7 -7 15 -10 18 -7 3 3 -2 9 -12 12 -14 6 -15 5 -6 -5z"/>
<path d="M920 880 c8 -5 20 -10 25 -10 6 0 3 5 -5 10 -8 5 -19 10 -25 10 -5 0
-3 -5 5 -10z"/>
<path d="M450 845 c0 -17 -2 -17 -10 -5 -16 24 -12 6 11 -46 11 -27 24 -59 30
-72 7 -19 12 -21 29 -12 11 6 20 18 20 26 0 8 5 12 10 9 6 -3 10 -1 10 5 0 6
4 8 10 5 6 -4 7 1 3 12 -6 15 -4 16 8 6 11 -9 18 -8 33 3 11 8 18 14 15 15 -2
0 -12 2 -21 4 -12 2 -15 -2 -11 -13 4 -14 2 -14 -10 1 -11 14 -16 15 -20 5 -4
-9 -6 -8 -6 3 -1 9 -10 24 -21 34 -20 18 -25 11 -14 -20 5 -13 8 -14 15 -3 7
10 9 10 8 -2 0 -8 -4 -23 -8 -33 -5 -14 -11 -7 -25 32 -10 28 -22 51 -27 51
-5 0 2 -25 16 -56 29 -65 31 -75 10 -48 -14 18 -15 17 -10 -11 5 -26 4 -27 -4
-7 -6 12 -8 28 -5 35 2 7 -4 33 -15 58 -13 27 -21 36 -21 24z m29 -75 c0 -8
-6 0 -14 19 -8 18 -15 36 -15 40 1 13 29 -45 29 -59z"/>
<path d="M311 794 c0 -11 3 -14 6 -6 3 7 2 16 -1 19 -3 4 -6 -2 -5 -13z"/>
<path d="M426 726 c-8 -32 11 -73 26 -58 7 7 6 22 -4 48 l-15 37 -7 -27z m23
-51 c0 -5 -4 -3 -9 5 -5 8 -9 22 -9 30 0 16 17 -16 18 -35z"/>
<path d="M555 701 c-3 -5 -2 -12 3 -15 5 -3 9 1 9 9 0 17 -3 19 -12 6z"/>
<path d="M519 673 c-13 -16 -12 -17 4 -4 16 13 21 21 13 21 -2 0 -10 -8 -17
-17z"/>
<path d="M399 583 l-24 -28 28 24 c25 23 32 31 24 31 -2 0 -14 -12 -28 -27z"/>
<path d="M330 525 c-19 -19 -30 -35 -25 -35 7 0 65 59 65 67 0 7 -8 1 -40 -32z"/>
<path d="M253 423 c0 -9 4 -10 14 -2 7 6 13 12 13 14 0 1 -6 2 -13 2 -8 0 -14
-6 -14 -14z"/>
</g>
</svg>
