<?xml version="1.0" encoding="utf-8"?>
<!-- Generator: Adobe Illustrator 16.0.0, SVG Export Plug-In . SVG Version: 6.00 Build 0)  -->
<!DOCTYPE svg PUBLIC "-//W3C//DTD SVG 1.1//EN" "http://www.w3.org/Graphics/SVG/1.1/DTD/svg11.dtd">
<svg version="1.1" id="Layer_1" xmlns="http://www.w3.org/2000/svg" xmlns:xlink="http://www.w3.org/1999/xlink" x="0px" y="0px"
	 width="304.132px" height="378.512px" viewBox="0 0 304.132 378.512" enable-background="new 0 0 304.132 378.512"
	 xml:space="preserve">
<g>
	<g>
		<g>
			<path fill="#231F20" d="M235.405,144.066h-164.1v-33.467c0-43.835,35.535-79.37,79.371-79.37h5.359
				c43.836,0,79.369,35.535,79.369,79.37V144.066z"/>
		</g>
	</g>
</g>
<g>
	<g>
		<g>
			<path fill="#FFFFFF" d="M122.516,75.256c-12.99,7.393-22.58,14.545-27.373,11.127c-4.789-3.415-3.287-16.879,11.949-28.604
				c15.238-11.729,30.242-10.71,34.088-5.591C145.659,58.145,139.616,65.523,122.516,75.256z"/>
		</g>
	</g>
</g>
<g>
	<g>
		<g>
			<path fill="#231F20" d="M264.145,166.489c-15.203-1.225-64.404-1.256-110.791-0.963c-46.383-0.293-95.588-0.262-110.793,0.963
				c-31.145,2.511-19.09,35.165-5.023,45.72c5.125,3.845,28.699,6.485,43.82,8.292v-21.378h143.996V220.5
				c15.119-1.807,38.691-4.447,43.818-8.292C283.237,201.654,295.292,169,264.145,166.489z"/>
		</g>
	</g>
</g>
<g>
	<g>
		<g>
			<path fill="#FF6A00" d="M153.989,220.521l-0.006-0.021c0,0-0.221,0-0.637,0.007c-0.416-0.007-0.639-0.007-0.639-0.007
				l-0.004,0.021c-8.559,0.269-57.361,3.933-55.986,52.977c1.506,53.746,38.344,66.304,54.086,64.794
				c0.928-0.085,4.268,0.348,6.623,0.102c16.484,0.581,51.104-12.833,52.566-64.896C211.368,224.454,162.553,220.79,153.989,220.521
				z"/>
		</g>
	</g>
</g>
<g>
	<g>
		<g>
			<path fill="#FF6A00" d="M153.989,220.521l-0.006-0.021c0,0-0.221,0-0.637,0.007c-0.416-0.007-0.639-0.007-0.639-0.007
				l-0.004,0.021c-8.559,0.269-57.361,3.933-55.986,52.977c1.506,53.746,38.344,66.304,54.086,64.794
				c0.928-0.085,4.268,0.348,6.623,0.102c16.484,0.581,51.104-12.833,52.566-64.896C211.368,224.454,162.553,220.79,153.989,220.521
				z"/>
		</g>
	</g>
</g>
<g>
	<path fill="#B24B04" d="M157.426,318.381c-2.355,0.246-5.695-0.187-6.623-0.102c-14.828,1.422-48.367-9.643-53.473-55.847
		c-0.5,3.405-0.725,7.083-0.613,11.064c1.506,53.746,38.344,66.304,54.086,64.794c0.928-0.085,4.268,0.348,6.623,0.102
		c16.484,0.581,51.104-12.833,52.566-64.896c0.111-3.985-0.113-7.667-0.615-11.075C204.442,307.096,172.924,318.928,157.426,318.381
		z"/>
</g>
<g>
	<g>
		<g>
			<path fill="#FFFFFF" d="M163.405,251.39h-20.098c-10.82,0-19.592,8.767-19.592,19.59c0,10.818,8.771,19.592,19.592,19.592h0.166
				v-6.697c0-5.452,4.424-9.874,9.879-9.874c5.457,0,9.879,4.422,9.879,9.874v6.697h0.174c10.818,0,19.588-8.773,19.588-19.592
				C182.993,260.157,174.223,251.39,163.405,251.39z"/>
		</g>
	</g>
</g>
<g>
	<g>
		<g>
			<path fill="#231F20" d="M168.956,266.961h-31.203c-2.217,0-4.018-1.799-4.018-4.018c0-2.218,1.801-4.016,4.018-4.016h31.203
				c2.219,0,4.02,1.798,4.02,4.016C172.975,265.163,171.174,266.961,168.956,266.961z"/>
		</g>
	</g>
</g>
</svg>
